<?xml version="1.0" standalone="no"?>
<!DOCTYPE svg PUBLIC "-//W3C//DTD SVG 20010904//EN"
 "http://www.w3.org/TR/2001/REC-SVG-20010904/DTD/svg10.dtd">
<svg version="1.0" xmlns="http://www.w3.org/2000/svg"
 width="213.000000pt" height="213.000000pt" viewBox="0 0 213.000000 213.000000"
 preserveAspectRatio="xMidYMid meet">
<metadata>
Created by potrace 1.14, written by Peter Selinger 2001-2017
</metadata>
<g transform="translate(0.000000,213.000000) scale(0.100000,-0.100000)"
fill="#000000" stroke="none">
<path d="M1280 1870 c-24 -24 -26 -62 -4 -99 15 -25 14 -32 -10 -112 l-26 -85
-99 4 c-122 5 -217 -14 -321 -64 -40 -19 -79 -33 -87 -30 -7 3 -13 -1 -13 -10
0 -9 -25 -38 -56 -66 -30 -28 -68 -70 -84 -93 -29 -42 -29 -42 -97 -44 -37 -1
-104 -7 -148 -13 -44 -7 -94 -12 -112 -12 -18 0 -30 -3 -28 -7 4 -6 -50 -34
-67 -34 -3 0 -22 -15 -42 -32 -19 -18 -40 -33 -46 -33 -12 0 -12 3 -15 -90 -3
-60 0 -82 16 -108 22 -39 24 -46 6 -36 -6 4 -9 4 -5 -1 4 -4 18 -13 30 -19 16
-8 22 -19 20 -36 -2 -20 -1 -22 7 -10 10 13 15 8 12 -12 0 -4 5 -5 13 -2 7 3
25 -9 39 -25 14 -17 28 -31 31 -31 13 0 124 -78 119 -84 -4 -3 2 -6 12 -6 11
0 57 -20 104 -44 109 -55 304 -133 356 -142 22 -3 65 -14 95 -24 31 -10 84
-21 118 -25 60 -7 81 -20 45 -27 -15 -3 -14 -5 5 -10 14 -4 20 -2 15 5 -4 7 2
8 18 3 13 -4 60 -13 104 -21 44 -8 107 -19 140 -25 33 -6 130 -13 215 -15 312
-9 496 38 567 144 19 28 23 47 23 113 0 48 -4 77 -10 73 -5 -3 -16 7 -24 22
-8 15 -23 39 -35 51 -11 13 -21 27 -23 30 -4 9 -30 27 -143 102 -49 33 -94 64
-100 68 -5 4 -17 11 -26 14 -11 4 -18 24 -23 62 -3 31 -15 80 -26 109 -11 28
-20 60 -20 70 0 9 -5 17 -11 17 -5 0 -7 5 -4 10 3 5 1 10 -4 10 -6 0 -11 7
-11 15 0 14 -10 26 -93 113 -23 23 -37 42 -32 42 5 0 -6 9 -25 19 -19 11 -34
24 -32 31 1 6 -2 9 -8 5 -19 -11 -32 6 -18 23 11 15 11 15 -3 4 -14 -10 -28
-7 -87 20 -68 31 -71 35 -72 67 0 53 23 151 35 151 24 0 55 46 55 82 0 60 -68
90 -110 48z m60 -50 c0 -5 -4 -10 -10 -10 -5 0 -10 5 -10 10 0 6 5 10 10 10 6
0 10 -4 10 -10z"/>
<path d="M818 463 c7 -3 16 -2 19 1 4 3 -2 6 -13 5 -11 0 -14 -3 -6 -6z"/>
<path d="M1228 363 c7 -3 16 -2 19 1 4 3 -2 6 -13 5 -11 0 -14 -3 -6 -6z"/>
<path d="M930 280 c8 -5 22 -9 30 -9 10 0 8 3 -5 9 -27 12 -43 12 -25 0z"/>
</g>
</svg>
